# xmcd
#
# Track frame offsets: 
#        150
#        23054
#        40665
#        63392
#        80135
#        102477
#        119307
#        142242
#        162217
#        179551
#        198035
#        206727
#        219402
#        234212
#        250099
#        274372
#        293316
#        315037
#
# Disc length: 4424 seconds
#
# Revision: 0
# Processed by: cddbd v1.5.1PL0 Copyright (c) Steve Scherf et al.
# Submitted via: ExactAudioCopy v0.95a3
#
DISCID=fb114612
DTITLE=Various Artist - Всесоюзный Сборник 6
DYEAR=2000
DGENRE=Pop
TTITLE0=Леприконсы - Хали-Гали, Паратрупер (Sanches and Dj Evsey Latino 
TTITLE0=Mix)
TTITLE1=Таня Буланова and Dj Цветкоff - Сердце Из Гранита
TTITLE2=Найк Борзов - Лошадка
TTITLE3=Андрей Губин - Знаю Я
TTITLE4=Отпетые Мошенники - Не Говори Мне Ничего
TTITLE5=Високосный Год - Метро
TTITLE6=Валерия - Рига-Москва (Galactic Mix)
TTITLE7=Dj Грув - Ответ
TTITLE8=Лика Стар - Ветер
TTITLE9=Александр Иванов - Мотив Последней Песни
TTITLE10=S.P.O.R.T. - Are You Gangaters?
TTITLE11=Дилайла - Поменяй Меня
TTITLE12=Hi-Fi - За Мной
TTITLE13=Play - Город Теней
TTITLE14=Иван Купала and Arrival Project - Кострома (Arrival Project Tra
TTITLE14=nce Long Play Remix)
TTITLE15=Дискотека Авария and Блестящие - Чао, Бамбина! (Remix)
TTITLE16=Оскар - Между Мной И Тобой
TTITLE17=Иzюм - Не Забывай
EXTD=
EXTT0=
EXTT1=
EXTT2=
EXTT3=
EXTT4=
EXTT5=
EXTT6=
EXTT7=
EXTT8=
EXTT9=
EXTT10=
EXTT11=
EXTT12=
EXTT13=
EXTT14=
EXTT15=
EXTT16=
EXTT17=
PLAYORDER=
